PathFileType	4	(X/Y/Z)	1H_nor_fast_left.trc
DataRate	CameraRate	NumFrames	NumMarkers	Units	OrigDataRate	OrigDataStartFrame	OrigNumFrames
250.00	250.00	8	18	mm	250.00	2859	7622
Frame#	Time	c7	r_should	r_elb_m	clavicle	r_upa	r_wri_m	l_upa	l_elb_l	l_low	l_wri_l	l_met	l_elb_m	r_elb_l	l_should	r_low	r_wri_l	r_met	l_wri_m
	X1	Y1	Z1	X2	Y2	Z2	X3	Y3	Z3	X4	Y4	Z4	X5	Y5	Z5	X6	Y6	Z6	X7	Y7	Z7	X8	Y8	Z8	X9	Y9	Z9	X10	Y10	Z10	X11	Y11	Z11	X12	Y12	Z12	X13	Y13	Z13	X14	Y14	Z14	X15	Y15	Z15	X16	Y16	Z16	X17	Y17	Z17	X18	Y18	Z18
2859	11.43200	1106.14124	1426.29102	129.38251	1144.88184	1353.30554	300.05338	1096.33447	1015.96643	299.48050	1220.29407	1289.88306	130.45320	1161.47424	1135.06323	343.94202	1133.70081	785.42938	376.47043	1169.21545	1160.14331	-116.87703	1187.01392	1054.56628	-134.05649	1201.90308	934.91351	-113.94755	1213.05347	827.87170	-66.35617	1250.99561	760.40674	-98.37773	1105.75317	1038.43896	-76.55373	1166.97107	1044.35181	356.95230	1151.53394	1363.77136	-38.96899	1183.67004	908.36761	347.30807	1193.39185	782.04730	329.00119	1213.64380	721.62128	373.64087	1159.72815	805.00958	-117.93954
2860	11.43600	1106.09753	1426.30432	129.29283	1144.75610	1353.34021	299.97757	1096.17542	1016.02533	299.52957	1220.25562	1289.88147	130.42000	1162.36816	1134.87439	344.48221	1133.64172	785.50977	376.50879	1169.09814	1160.34119	-117.13699	1186.83887	1054.80334	-134.35289	1201.81714	935.19403	-114.14011	1213.05322	828.26416	-66.33099	1251.01685	760.72620	-98.27614	1105.54626	1038.67285	-76.95800	1166.81567	1044.43616	357.00046	1151.53601	1363.85156	-39.00045	1183.56384	908.45325	347.36316	1193.35083	782.14062	329.02463	1213.62231	721.72009	373.66495	1159.72034	805.25732	-117.88464
2861	11.44000	1106.05579	1426.31860	129.21590	1144.63599	1353.37683	299.91086	1096.02100	1016.08240	299.58151	1220.20618	1289.88049	130.38908	1159.88086	1135.41833	343.36978	1133.57947	785.58087	376.55618	1168.97192	1160.56152	-117.39348	1186.66003	1055.07288	-134.63686	1201.73584	935.52472	-114.31816	1213.07190	828.70361	-66.29458	1251.05811	761.09613	-98.14861	1105.34753	1038.93738	-77.39560	1166.65845	1044.50854	357.05389	1151.51221	1363.95239	-39.02555	1183.46118	908.53033	347.41104	1193.24585	782.39795	329.28723	1213.59302	721.81750	373.69336	1159.72986	805.55371	-117.80925
2862	11.44400	1106.01111	1426.32776	129.15443	1144.53040	1353.40955	299.84647	1095.87280	1016.12805	299.63275	1220.15100	1289.87842	130.36290	1159.14734	1135.60034	343.11731	1133.52405	785.65106	376.61115	1168.84814	1160.81140	-117.65237	1186.47937	1055.36963	-134.91866	1201.66882	935.89734	-114.49199	1213.11035	829.17896	-66.25217	1251.12549	761.52435	-97.98279	1105.16455	1039.22974	-77.85333	1166.51355	1044.57361	357.10318	1151.46960	1364.07520	-39.04456	1183.35217	908.60413	347.46323	1193.12280	782.69330	329.60956	1213.55713	721.90924	373.73355	1160.07056	805.65656	-117.48702
2863	11.44800	1105.96472	1426.33777	129.10696	1144.44165	1353.43628	299.79636	1095.73035	1016.17108	299.69055	1220.08862	1289.87988	130.33272	1158.86292	1135.68054	343.08160	1133.46790	785.71039	376.66260	1168.72900	1161.08459	-117.89972	1186.27759	1055.69836	-135.23260	1201.60803	936.30994	-114.66704	1213.17322	829.70166	-66.19523	1251.22986	762.01727	-97.78035	1104.99402	1039.55566	-78.31459	1166.36658	1044.63708	357.15405	1151.41003	1364.20984	-39.05352	1183.23889	908.67999	347.51422	1193.10193	782.67346	329.48679	1213.52173	721.99451	373.77103	1160.84045	805.51270	-116.85642
2864	11.45200	1105.91772	1426.35120	129.06892	1144.35522	1353.45850	299.73538	1095.59961	1016.21033	299.74365	1220.02209	1289.88367	130.29749	1158.69739	1135.73083	343.09250	1133.40637	785.76196	376.70947	1168.61877	1161.37769	-118.13436	1186.05945	1056.04675	-135.56984	1201.54309	936.72571	-114.84325	1213.24683	830.26447	-66.11057	1251.36719	762.55585	-97.55124	1104.80310	1039.90771	-78.78965	1166.22888	1044.69177	357.22238	1151.34473	1364.34912	-39.06194	1183.12915	908.73633	347.56314	1192.93738	783.03979	329.93799	1213.48425	722.07581	373.81567	1161.12427	805.80878	-116.57422
2865	11.45600	1105.86902	1426.36255	129.04187	1144.27490	1353.47900	299.68182	1095.48682	1016.24347	299.79593	1219.95618	1289.88062	130.25719	1158.56677	1135.76611	343.11014	1133.35706	785.80988	376.76004	1168.51440	1161.67993	-118.36512	1185.82458	1056.40527	-135.91159	1201.48547	937.15527	-114.99113	1213.35339	830.89532	-65.99766	1251.53430	763.11957	-97.30150	1104.57581	1040.25818	-79.28612	1166.09961	1044.74158	357.28723	1151.27551	1364.49316	-39.07024	1183.01941	908.79224	347.61484	1192.45081	783.70209	329.69431	1213.45203	722.14923	373.85941	1161.31384	806.19775	-116.37660
2866	11.46000	1105.81787	1426.37512	129.02025	1144.19910	1353.49817	299.63486	1095.37842	1016.27350	299.85077	1219.88611	1289.88025	130.21146	1158.45166	1135.79639	343.12494	1133.32361	785.85443	376.82886	1168.40771	1161.98755	-118.60555	1185.57324	1056.79846	-136.27052	1201.42798	937.63367	-115.13440	1213.48193	831.57336	-65.89098	1251.74292	763.71613	-97.02440	1104.33228	1040.63232	-79.81596	1165.96582	1044.77234	357.33975	1151.20056	1364.64771	-39.07830	1182.91931	908.84717	347.65945	1191.88281	784.43945	329.28378	1213.42249	722.21539	373.89999	1161.49414	806.61633	-116.20474
